STARTFONT 2.1
FONT big5.7e00.16
SIZE 16 72 72
FONTBOUNDINGBOX 16 16 0 -2
STARTPROPERTIES 4
FONT_DESCENT 2
FONT_ASCENT 14
DEFAULT_CHAR 3
COPYRIGHT "Copyright (c) 1992 AT&T - All rights reserved."
ENDPROPERTIES
CHARS 273
STARTCHAR ch-3
ENCODING 3
SWIDTH 1000 0
DWIDTH 16 0
BBX 16 16 0 -2
BITMAP
13ff
2021
493c
7920
12ff
2000
45fe
7d02
11fe
3902
55fe
1102
1102
1206
0000
0000
ENDCHAR
STARTCHAR ch-8
ENCODING 8
SWIDTH 1000 0
DWIDTH 16 0
BBX 16 16 0 -2
BITMAP
4949
2a2a
1414
2222
7fff
4101
0220
0fc0
0108
1ffc
0490
0888
3086
0080
0000
0000
ENDCHAR
STARTCHAR ch-9
ENCODING 9
SWIDTH 1000 0
DWIDTH 16 0
BBX 16 16 0 -2
BITMAP
09ff
1021
2042
44a5
79ef
1000
25ff
7c00
10fe
5482
54fe
5482
54fe
1082
0000
0000
ENDCHAR
STARTCHAR ch-10
ENCODING 10
SWIDTH 1000 0
DWIDTH 16 0
BBX 16 16 0 -2
BITMAP
0882
1044
2028
45ff
7828
1044
2482
7d01
10fe
54aa
54aa
54aa
11ff
1000
0000
0000
ENDCHAR
STARTCHAR ch-11
ENCODING 11
SWIDTH 1000 0
DWIDTH 16 0
BBX 16 16 0 -2
BITMAP
2210
2220
493f
7ba1
10a1
213f
4a20
793f
10a1
38a1
56bf
10a0
1100
12ff
0000
0000
ENDCHAR
STARTCHAR ch-12
ENCODING 12
SWIDTH 1000 0
DWIDTH 16 0
BBX 16 16 0 -2
BITMAP
1041
2222
4514
7c7f
1008
23aa
44aa
7cbe
1088
5488
5490
54a0
1140
123f
0000
0000
ENDCHAR
STARTCHAR ch-13
ENCODING 13
SWIDTH 1000 0
DWIDTH 16 0
BBX 16 16 0 -2
BITMAP
1020
21fe
4488
7c50
13ff
2201
4621
7dfe
1080
54fe
5482
5482
1102
100c
0000
0000
ENDCHAR
STARTCHAR ch-14
ENCODING 14
SWIDTH 1000 0
DWIDTH 16 0
BBX 16 16 0 -2
BITMAP
107c
2044
445c
7c54
11ff
2101
457d
7c44
107c
5444
547c
5444
1044
108c
0000
0000
ENDCHAR
STARTCHAR ch-15
ENCODING 15
SWIDTH 1000 0
DWIDTH 16 0
BBX 16 16 0 -2
BITMAP
103c
7f24
2925
2547
7fbe
2914
2508
4377
0220
0fc0
0108
3ffc
0888
1084
0000
0000
ENDCHAR
STARTCHAR ch-16
ENCODING 16
SWIDTH 1000 0
DWIDTH 16 0
BBX 16 16 0 -2
BITMAP
0880
10ff
2111
4455
787d
1011
24a2
7cff
1091
5555
547d
5411
1021
1046
0000
0000
ENDCHAR
STARTCHAR ch-17
ENCODING 17
SWIDTH 1000 0
DWIDTH 16 0
BBX 16 16 0 -2
BITMAP
0082
0844
11ff
2028
44fe
782a
11ff
242a
7cfe
1028
546c
54aa
5529
1028
0000
0000
ENDCHAR
STARTCHAR ch-18
ENCODING 18
SWIDTH 1000 0
DWIDTH 16 0
BBX 16 16 0 -2
BITMAP
1104
1088
23fe
4820
7ffe
1020
23fe
4880
7c80
11fe
3a10
5410
1010
11ff
0000
0000
ENDCHAR
STARTCHAR ch-19
ENCODING 19
SWIDTH 1000 0
DWIDTH 16 0
BBX 16 16 0 -2
BITMAP
11ff
2120
457e
7dc2
1142
217e
4542
7d42
117e
552c
564a
5489
1008
1018
0000
0000
ENDCHAR
STARTCHAR ch-20
ENCODING 20
SWIDTH 1000 0
DWIDTH 16 0
BBX 16 16 0 -2
BITMAP
11fc
1050
2020
4fdf
7a8a
1104
228a
4c71
7820
17ff
38a8
5524
1222
1020
0000
0000
ENDCHAR
STARTCHAR ch-21
ENCODING 21
SWIDTH 1000 0
DWIDTH 16 0
BBX 16 16 0 -2
BITMAP
11fc
2124
4524
7d54
118c
2104
45fc
7c00
13fe
3a52
5652
1252
1252
17ff
0000
0000
ENDCHAR
STARTCHAR ch-22
ENCODING 22
SWIDTH 1000 0
DWIDTH 16 0
BBX 16 16 0 -2
BITMAP
1020
17ff
2401
4c21
7bfe
1020
23fe
4820
7bfe
1000
3bfe
5602
1202
13fe
0000
0000
ENDCHAR
STARTCHAR ch-23
ENCODING 23
SWIDTH 1000 0
DWIDTH 16 0
BBX 16 16 0 -2
BITMAP
1020
17ff
2000
49fc
7904
17ff
2104
49fc
7c90
1091
118a
3a84
54ab
13c0
0000
0000
ENDCHAR
STARTCHAR ch-26
ENCODING 26
SWIDTH 1000 0
DWIDTH 16 0
BBX 16 16 0 -2
BITMAP
13fe
2124
4924
7e23
1080
2300
4a07
7a01
1201
13cf
3a01
5601
1201
13ff
0000
0000
ENDCHAR
STARTCHAR ch-27
ENCODING 27
SWIDTH 1000 0
DWIDTH 16 0
BBX 16 16 0 -2
BITMAP
1022
17ff
2020
4bfe
7a22
13fe
2222
4bfe
7a22
17ff
3904
5084
1014
1008
0000
0000
ENDCHAR
STARTCHAR ch-28
ENCODING 28
SWIDTH 1000 0
DWIDTH 16 0
BBX 16 16 0 -2
BITMAP
10fe
2082
44fe
7c00
10fe
2082
44fe
7c82
10fe
5482
54fe
5444
1082
1101
0000
0000
ENDCHAR
STARTCHAR ch-29
ENCODING 29
SWIDTH 1000 0
DWIDTH 16 0
BBX 16 16 0 -2
BITMAP
0810
11ff
2010
44fe
7882
10fe
2082
44fe
7e82
10fe
5482
55ff
5444
1082
0000
0000
ENDCHAR
STARTCHAR ch-30
ENCODING 30
SWIDTH 1000 0
DWIDTH 16 0
BBX 16 16 0 -2
BITMAP
0810
11ff
2000
447c
7844
107c
2400
7dff
1101
557d
5545
557d
1101
1102
0000
0000
ENDCHAR
STARTCHAR ch-31
ENCODING 31
SWIDTH 1000 0
DWIDTH 16 0
BBX 16 16 0 -2
BITMAP
11ff
1100
217e
4900
7dff
114a
2254
48e3
7c04
13ff
3884
5444
1004
100c
0000
0000
ENDCHAR
STARTCHAR ch-32
ENCODING 32
SWIDTH 1000 0
DWIDTH 16 0
BBX 16 16 0 -2
BITMAP
083c
7f24
0824
3e25
7f67
4100
5d7f
0841
1222
3c14
0908
7f14
2a22
4941
0000
0000
ENDCHAR
STARTCHAR ch-33
ENCODING 33
SWIDTH 1000 0
DWIDTH 16 0
BBX 16 16 0 -2
BITMAP
1010
11ff
2101
4511
78fe
1044
2028
45ff
7c10
10fe
3810
5410
1010
1010
0000
0000
ENDCHAR
STARTCHAR ch-34
ENCODING 34
SWIDTH 1000 0
DWIDTH 16 0
BBX 16 16 0 -2
BITMAP
7924
48a8
4bfe
4820
7fff
4a42
4c89
4bfc
7842
4fff
48a8
4924
4a22
5820
0000
0000
ENDCHAR
STARTCHAR ch-35
ENCODING 35
SWIDTH 1000 0
DWIDTH 16 0
BBX 16 16 0 -2
BITMAP
1f7f
1108
1f11
1122
1f7c
5108
5f11
407f
7f88
042a
152a
24aa
4449
0408
0000
0000
ENDCHAR
STARTCHAR ch-36
ENCODING 36
SWIDTH 1000 0
DWIDTH 16 0
BBX 16 16 0 -2
BITMAP
1010
21ff
4410
7dff
1010
21ff
4410
7c22
10fc
5408
55ff
5454
1092
1010
0000
0000
ENDCHAR
STARTCHAR ch-37
ENCODING 37
SWIDTH 1000 0
DWIDTH 16 0
BBX 16 16 0 -2
BITMAP
1020
13fe
2020
4bfe
7850
13fe
2104
4afa
7c21
11fc
38a8
5524
1222
1020
0000
0000
ENDCHAR
STARTCHAR ch-41
ENCODING 41
SWIDTH 1000 0
DWIDTH 16 0
BBX 16 16 0 -2
BITMAP
0100
21de
2352
4ccc
7a84
0902
12f9
2800
7dfc
1020
38a8
5726
1020
1020
0000
0000
ENDCHAR
STARTCHAR ch-42
ENCODING 42
SWIDTH 1000 0
DWIDTH 16 0
BBX 16 16 0 -2
BITMAP
11ff
2111
45ff
7d11
11ff
2092
45ff
7c92
11ff
5410
55ff
5410
1010
1010
0000
0000
ENDCHAR
STARTCHAR ch-43
ENCODING 43
SWIDTH 1000 0
DWIDTH 16 0
BBX 16 16 0 -2
BITMAP
1020
123e
2152
4494
7c18
0866
1008
273e
7d08
117f
5508
577f
5488
107f
0000
0000
ENDCHAR
STARTCHAR ch-45
ENCODING 45
SWIDTH 1000 0
DWIDTH 16 0
BBX 16 16 0 -2
BITMAP
0020
23fe
2154
4524
7954
11fc
2020
4bff
7e21
1249
3afd
5605
1201
1203
0000
0000
ENDCHAR
STARTCHAR ch-46
ENCODING 46
SWIDTH 1000 0
DWIDTH 16 0
BBX 16 16 0 -2
BITMAP
0810
1010
21ff
4501
2941
10be
2590
7ebe
10a2
54be
54a2
54a2
10be
10a2
0000
0000
ENDCHAR
STARTCHAR ch-47
ENCODING 47
SWIDTH 1000 0
DWIDTH 16 0
BBX 16 16 0 -2
BITMAP
0020
0810
11ff
2101
447c
7810
10fe
2492
7cfe
1092
54fe
5428
5444
1082
0000
0000
ENDCHAR
STARTCHAR ch-48
ENCODING 48
SWIDTH 1000 0
DWIDTH 16 0
BBX 16 16 0 -2
BITMAP
0008
20ae
20a8
4928
7aff
0c88
1108
2b08
7d2e
1128
1128
3928
5558
118f
0000
0000
ENDCHAR
STARTCHAR ch-49
ENCODING 49
SWIDTH 1000 0
DWIDTH 16 0
BBX 16 16 0 -2
BITMAP
08a2
1122
2222
40a2
2955
1308
2108
2548
7d4e
1148
5548
5568
5558
114f
0000
0000
ENDCHAR
STARTCHAR ch-50
ENCODING 50
SWIDTH 1000 0
DWIDTH 16 0
BBX 16 16 0 -2
BITMAP
08fe
1092
20fe
4492
78fe
1020
2444
7cfc
1052
55ff
5438
5454
1092
1010
0000
0000
ENDCHAR
STARTCHAR ch-51
ENCODING 51
SWIDTH 1000 0
DWIDTH 16 0
BBX 16 16 0 -2
BITMAP
1010
11ff
2010
44fe
7c92
10fe
2092
44fe
7c11
11ff
5404
55ff
5444
100c
0000
0000
ENDCHAR
STARTCHAR ch-52
ENCODING 52
SWIDTH 1000 0
DWIDTH 16 0
BBX 16 16 0 -2
BITMAP
0020
0810
11ff
2024
4478
7810
11ff
2525
7c7c
1090
55fe
5410
55ff
1010
0000
0000
ENDCHAR
STARTCHAR ch-53
ENCODING 53
SWIDTH 1000 0
DWIDTH 16 0
BBX 16 16 0 -2
BITMAP
08fe
1082
20fe
4482
28fe
11ff
2529
7dff
10fe
5444
5438
5444
1082
1301
0000
0000
ENDCHAR
STARTCHAR ch-54
ENCODING 54
SWIDTH 1000 0
DWIDTH 16 0
BBX 16 16 0 -2
BITMAP
0810
3e7c
0814
7f54
2235
7f15
0825
3ec7
0910
0220
07c0
0084
1ffc
0490
0000
0000
ENDCHAR
STARTCHAR ch-55
ENCODING 55
SWIDTH 1000 0
DWIDTH 16 0
BBX 16 16 0 -2
BITMAP
1010
10fe
2092
45ff
7c92
10fe
20fe
4492
7cfe
1054
55ff
5428
5410
11ef
0000
0000
ENDCHAR
STARTCHAR ch-56
ENCODING 56
SWIDTH 1000 0
DWIDTH 16 0
BBX 16 16 0 -2
BITMAP
1044
21ff
4444
7dff
1101
21ff
4501
7dff
1010
1010
55ff
5428
5444
1082
0000
0000
ENDCHAR
STARTCHAR ch-57
ENCODING 57
SWIDTH 1000 0
DWIDTH 16 0
BBX 16 16 0 -2
BITMAP
0802
09ff
1028
21ff
4529
79ff
1000
24fe
7c00
11ff
5410
5454
5492
1111
0000
0000
ENDCHAR
STARTCHAR ch-58
ENCODING 58
SWIDTH 1000 0
DWIDTH 16 0
BBX 16 16 0 -2
BITMAP
1008
227f
4508
7cbe
102a
23be
44aa
7cbe
1088
54ff
5488
5488
1100
12ff
0000
0000
ENDCHAR
STARTCHAR ch-59
ENCODING 59
SWIDTH 1000 0
DWIDTH 16 0
BBX 16 16 0 -2
BITMAP
0080
1fff
1208
1fbe
1308
169c
1a2b
1110
13e0
1088
27fc
2040
4444
08c2
0000
0000
ENDCHAR
STARTCHAR ch-60
ENCODING 60
SWIDTH 1000 0
DWIDTH 16 0
BBX 16 16 0 -2
BITMAP
2210
211f
4fe0
7a5f
0b8a
1288
2a88
7eae
12a8
12a8
3aa8
56a8
10b4
1143
0000
0000
ENDCHAR
STARTCHAR ch-61
ENCODING 61
SWIDTH 1000 0
DWIDTH 16 0
BBX 16 16 0 -2
BITMAP
0880
11fe
2122
453a
794a
11aa
2512
7d22
11fe
5400
5552
5549
1142
103f
0000
0000
ENDCHAR
STARTCHAR ch-62
ENCODING 62
SWIDTH 1000 0
DWIDTH 16 0
BBX 16 16 0 -2
BITMAP
0810
10fe
2010
44fe
7810
11ff
24fe
7c82
10fa
54be
5482
54fe
1044
1082
0000
0000
ENDCHAR
STARTCHAR ch-63
ENCODING 63
SWIDTH 1000 0
DWIDTH 16 0
BBX 16 16 0 -2
BITMAP
1060
1082
21fe
4444
7ca9
09ff
1028
244c
7c92
1125
5448
5412
5404
10f8
0000
0000
ENDCHAR
STARTCHAR ch-64
ENCODING 64
SWIDTH 1000 0
DWIDTH 16 0
BBX 16 16 0 -2
BITMAP
1010
2111
45ff
7c20
1048
20ff
4588
7cff
1088
54ff
5488
5488
10ff
1080
0000
0000
ENDCHAR
STARTCHAR ch-65
ENCODING 65
SWIDTH 1000 0
DWIDTH 16 0
BBX 16 16 0 -2
BITMAP
1f90
203f
5f62
1514
7f88
1514
1fa3
0110
07e0
0308
1ffc
0082
0888
1084
0000
0000
ENDCHAR
STARTCHAR ch-66
ENCODING 66
SWIDTH 1000 0
DWIDTH 16 0
BBX 16 16 0 -2
BITMAP
0020
23fe
2020
4a52
7974
0820
1154
2a72
7c20
17ff
3820
5420
1020
1020
0000
0000
ENDCHAR
STARTCHAR ch-67
ENCODING 67
SWIDTH 1000 0
DWIDTH 16 0
BBX 16 16 0 -2
BITMAP
1010
2111
45ff
7c00
11ef
2129
4529
7def
1129
5529
55ef
5529
5529
1073
0000
0000
ENDCHAR
STARTCHAR ch-68
ENCODING 68
SWIDTH 1000 0
DWIDTH 16 0
BBX 16 16 0 -2
BITMAP
7fbc
5025
5f47
6400
5f3e
4a14
5108
7fb6
0110
07e0
0084
3ffc
0490
0888
0000
0000
ENDCHAR
STARTCHAR ch-69
ENCODING 69
SWIDTH 1000 0
DWIDTH 16 0
BBX 16 16 0 -2
BITMAP
0892
1124
2092
44fe
7892
10fe
2492
7cfe
1010
55ff
5454
5492
1111
0010
0000
0000
ENDCHAR
STARTCHAR ch-70
ENCODING 70
SWIDTH 1000 0
DWIDTH 16 0
BBX 16 16 0 -2
BITMAP
11ef
20a5
4463
7cb5
1068
2044
448a
7d11
1024
54c8
5412
5464
1008
00f0
0000
0000
ENDCHAR
STARTCHAR ch-71
ENCODING 71
SWIDTH 1000 0
DWIDTH 16 0
BBX 16 16 0 -2
BITMAP
1f14
3128
4a50
2ca2
187c
3008
7e12
4821
7f7f
0809
2a2c
2a4a
3e89
2208
0000
0000
ENDCHAR
STARTCHAR ch-72
ENCODING 72
SWIDTH 1000 0
DWIDTH 16 0
BBX 16 16 0 -2
BITMAP
0802
09c4
1048
2051
45df
7904
111f
25d5
7c55
105f
5444
5445
555f
1081
0000
0000
ENDCHAR
STARTCHAR ch-73
ENCODING 73
SWIDTH 1000 0
DWIDTH 16 0
BBX 16 16 0 -2
BITMAP
10fe
2082
44fe
7c82
10fe
2082
44fe
7c00
1444
1145
54c6
5545
5484
1107
0000
0000
ENDCHAR
STARTCHAR ch-76
ENCODING 76
SWIDTH 1000 0
DWIDTH 16 0
BBX 16 16 0 -2
BITMAP
0100
21fc
2354
4924
7954
09fc
1088
2104
4440
7efe
1148
3830
5430
11ce
0000
0000
ENDCHAR
STARTCHAR ch-80
ENCODING 80
SWIDTH 1000 0
DWIDTH 16 0
BBX 16 16 0 -2
BITMAP
1010
11ff
2010
44fe
7c92
10fe
2092
44fe
7c11
11ff
5552
5549
5444
107c
0000
0000
ENDCHAR
STARTCHAR ch-81
ENCODING 81
SWIDTH 1000 0
DWIDTH 16 0
BBX 16 16 0 -2
BITMAP
1002
10fc
2010
45ff
7c28
107c
20c6
457d
7dff
1101
557d
5545
557d
1103
0000
0000
ENDCHAR
STARTCHAR ch-82
ENCODING 82
SWIDTH 1000 0
DWIDTH 16 0
BBX 16 16 0 -2
BITMAP
0882
1044
21ff
4511
7955
1139
25ff
7c00
10fe
5482
54fe
5482
10fe
1082
0000
0000
ENDCHAR
STARTCHAR ch-83
ENCODING 83
SWIDTH 1000 0
DWIDTH 16 0
BBX 16 16 0 -2
BITMAP
10fe
1082
20fe
4482
7cfe
1000
23ff
4520
7def
1121
55ea
5524
57ea
1031
0000
0000
ENDCHAR
STARTCHAR ch-84
ENCODING 84
SWIDTH 1000 0
DWIDTH 16 0
BBX 16 16 0 -2
BITMAP
1088
23ea
4549
7d48
0948
13ff
2408
7fe9
122a
57ec
5628
5635
57e3
1001
0000
0000
ENDCHAR
STARTCHAR ch-85
ENCODING 85
SWIDTH 1000 0
DWIDTH 16 0
BBX 16 16 0 -2
BITMAP
1082
1044
21ff
4410
7dff
0810
11ff
2444
7dff
1044
55ff
5501
5501
11ff
0000
0000
ENDCHAR
STARTCHAR ch-86
ENCODING 86
SWIDTH 1000 0
DWIDTH 16 0
BBX 16 16 0 -2
BITMAP
0148
2148
23ef
4952
7d4a
0bfa
100a
21ea
492a
7dea
112a
39e4
552a
1131
0000
0000
ENDCHAR
STARTCHAR ch-87
ENCODING 87
SWIDTH 1000 0
DWIDTH 16 0
BBX 16 16 0 -2
BITMAP
1092
1054
21ff
4438
7c54
1092
2111
4442
7cff
1132
54d2
54bf
5502
1002
0000
0000
ENDCHAR
STARTCHAR ch-88
ENCODING 88
SWIDTH 1000 0
DWIDTH 16 0
BBX 16 16 0 -2
BITMAP
10fe
1008
2050
49ff
7c51
0890
1030
21ff
4945
7d45
11bb
3929
5539
1103
0000
0000
ENDCHAR
STARTCHAR ch-89
ENCODING 89
SWIDTH 1000 0
DWIDTH 16 0
BBX 16 16 0 -2
BITMAP
1002
11fc
2092
4454
7c38
09ff
1054
2092
4511
7dff
1111
55ff
5511
11ff
0000
0000
ENDCHAR
STARTCHAR ch-90
ENCODING 90
SWIDTH 1000 0
DWIDTH 16 0
BBX 16 16 0 -2
BITMAP
1010
21ff
4410
7d29
08c6
1082
21ff
4482
7cfe
1082
54fe
5492
5511
1030
0000
0000
ENDCHAR
STARTCHAR ch-92
ENCODING 92
SWIDTH 1000 0
DWIDTH 16 0
BBX 16 16 0 -2
BITMAP
1082
1044
21ff
4428
7cfe
10aa
20c6
44ba
7c82
10fe
5404
55ff
5424
100c
0000
0000
ENDCHAR
STARTCHAR ch-94
ENCODING 94
SWIDTH 1000 0
DWIDTH 16 0
BBX 16 16 0 -2
BITMAP
1010
10fe
2010
45ff
7c44
11ef
2044
45ef
7c00
11ff
5428
5448
5489
110f
0000
0000
ENDCHAR
STARTCHAR ch-95
ENCODING 95
SWIDTH 1000 0
DWIDTH 16 0
BBX 16 16 0 -2
BITMAP
11ef
2129
45ef
7c00
10fe
2092
44fe
7c92
10fe
5410
55ff
5410
1010
1010
0000
0000
ENDCHAR
STARTCHAR ch-96
ENCODING 96
SWIDTH 1000 0
DWIDTH 16 0
BBX 16 16 0 -2
BITMAP
0510
0540
0108
00f8
5111
5414
1111
0f4f
0080
0720
00c4
3ffe
0248
0444
0000
0000
ENDCHAR
STARTCHAR ch-97
ENCODING 97
SWIDTH 1000 0
DWIDTH 16 0
BBX 16 16 0 -2
BITMAP
1010
10fe
2012
45ff
7c12
08fe
1111
2155
45d7
7dff
1111
55d7
5555
1155
0000
0000
ENDCHAR
STARTCHAR ch-98
ENCODING 98
SWIDTH 1000 0
DWIDTH 16 0
BBX 16 16 0 -2
BITMAP
1010
10fe
2092
44fe
7c10
11ff
20fe
4482
7cfe
1082
54fe
5482
54fe
1183
0000
0000
ENDCHAR
STARTCHAR ch-99
ENCODING 99
SWIDTH 1000 0
DWIDTH 16 0
BBX 16 16 0 -2
BITMAP
1010
10fe
21ff
4412
7cfe
10fe
2010
45ff
7cfe
1092
54fe
5492
54fe
11ff
0000
0000
ENDCHAR
STARTCHAR ch-104
ENCODING 104
SWIDTH 1000 0
DWIDTH 16 0
BBX 16 16 0 -2
BITMAP
1008
227e
4508
7cff
1022
237f
4508
7e3e
1108
557f
5508
5508
1280
147f
0000
0000
ENDCHAR
STARTCHAR ch-105
ENCODING 105
SWIDTH 1000 0
DWIDTH 16 0
BBX 16 16 0 -2
BITMAP
10fe
20aa
44aa
7cee
0828
11ef
2529
7def
1129
55ef
5420
5421
1021
103f
0000
0000
ENDCHAR
STARTCHAR ch-106
ENCODING 106
SWIDTH 1000 0
DWIDTH 16 0
BBX 16 16 0 -2
BITMAP
087c
1082
217d
4400
79ff
1155
2539
7dff
10fe
5482
54fe
5482
10fe
1082
0000
0000
ENDCHAR
STARTCHAR ch-107
ENCODING 107
SWIDTH 1000 0
DWIDTH 16 0
BBX 16 16 0 -2
BITMAP
0800
7fbc
3f25
2947
3f3e
3f22
0814
7f88
4914
7f63
0220
07c8
3ff8
0888
0000
0000
ENDCHAR
STARTCHAR ch-109
ENCODING 109
SWIDTH 1000 0
DWIDTH 16 0
BBX 16 16 0 -2
BITMAP
0410
7f7f
0410
7fff
4891
5291
7cfd
48d5
52fd
7e91
4895
5cfd
6a85
4883
0000
0000
ENDCHAR
STARTCHAR ch-111
ENCODING 111
SWIDTH 1000 0
DWIDTH 16 0
BBX 16 16 0 -2
BITMAP
11ff
2129
45ff
7c00
11ff
2000
44fe
7c82
10fe
5445
54c5
5546
1052
10e1
0000
0000
ENDCHAR
STARTCHAR ch-112
ENCODING 112
SWIDTH 1000 0
DWIDTH 16 0
BBX 16 16 0 -2
BITMAP
10f8
2088
48f8
7800
13de
2252
4bde
7820
1020
3bff
54a8
1124
1222
1020
0000
0000
ENDCHAR
STARTCHAR ch-114
ENCODING 114
SWIDTH 1000 0
DWIDTH 16 0
BBX 16 16 0 -2
BITMAP
109f
21e9
4a49
7891
13e2
22a0
4aaa
7bef
12b2
3aa2
57ef
1222
1222
1222
0000
0000
ENDCHAR
STARTCHAR ch-115
ENCODING 115
SWIDTH 1000 0
DWIDTH 16 0
BBX 16 16 0 -2
BITMAP
1208
17c8
2448
27df
7c62
0fd2
1114
2ff4
4214
7bc8
1a54
6454
2463
0982
0000
0000
ENDCHAR
STARTCHAR ch-116
ENCODING 116
SWIDTH 1000 0
DWIDTH 16 0
BBX 16 16 0 -2
BITMAP
1e10
12fe
1e28
10fe
1e10
327c
5f10
0250
07c0
0108
1ffc
0490
0888
1084
0000
0000
ENDCHAR
STARTCHAR ch-117
ENCODING 117
SWIDTH 1000 0
DWIDTH 16 0
BBX 16 16 0 -2
BITMAP
1010
11ff
20fe
44ba
78aa
10ba
20fe
4400
7efe
1082
38fe
54fe
1000
11ff
0000
0000
ENDCHAR
STARTCHAR ch-118
ENCODING 118
SWIDTH 1000 0
DWIDTH 16 0
BBX 16 16 0 -2
BITMAP
1020
11fe
2048
4bff
7800
20fc
4884
7cfc
1084
38fc
5422
1291
1284
147c
0000
0000
ENDCHAR
STARTCHAR ch-119
ENCODING 119
SWIDTH 1000 0
DWIDTH 16 0
BBX 16 16 0 -2
BITMAP
1028
11ff
2129
45ff
7d29
11ff
21ff
4500
7dff
1100
55ff
554a
5544
106b
0000
0000
ENDCHAR
STARTCHAR ch-120
ENCODING 120
SWIDTH 1000 0
DWIDTH 16 0
BBX 16 16 0 -2
BITMAP
1042
1224
217e
7808
1391
20aa
488c
7d36
108d
38b4
5484
1118
1200
15ff
0000
0000
ENDCHAR
STARTCHAR ch-121
ENCODING 121
SWIDTH 1000 0
DWIDTH 16 0
BBX 16 16 0 -2
BITMAP
11ff
2129
45ff
7c10
08fe
1010
25ff
7c44
10fe
5410
55ff
5410
1010
1010
0000
0000
ENDCHAR
STARTCHAR ch-122
ENCODING 122
SWIDTH 1000 0
DWIDTH 16 0
BBX 16 16 0 -2
BITMAP
1088
20e8
452f
7c51
1001
21ea
4424
7dea
1031
55e0
5400
54a5
10a5
1125
0000
0000
ENDCHAR
STARTCHAR ch-123
ENCODING 123
SWIDTH 1000 0
DWIDTH 16 0
BBX 16 16 0 -2
BITMAP
23fe
2020
4bfe
7aaa
1272
12aa
2800
4bfe
7840
13fe
3a52
5652
1252
1256
0000
0000
ENDCHAR
STARTCHAR ch-124
ENCODING 124
SWIDTH 1000 0
DWIDTH 16 0
BBX 16 16 0 -2
BITMAP
1144
2199
45ee
7d55
09ff
1100
25ff
7d44
1199
55ee
5555
55ff
5500
11ff
0000
0000
ENDCHAR
STARTCHAR ch-125
ENCODING 125
SWIDTH 1000 0
DWIDTH 16 0
BBX 16 16 0 -2
BITMAP
1010
11ff
2101
457d
7c10
1094
2118
45fc
7c44
107c
5474
5444
547c
1082
0000
0000
ENDCHAR
STARTCHAR ch-126
ENCODING 126
SWIDTH 1000 0
DWIDTH 16 0
BBX 16 16 0 -2
BITMAP
1008
127f
2149
447f
7c7f
133e
2122
4a3e
7d20
113e
5522
573e
5480
107f
0000
0000
ENDCHAR
STARTCHAR ch-128
ENCODING 128
SWIDTH 1000 0
DWIDTH 16 0
BBX 16 16 0 -2
BITMAP
20d5
28b6
4914
7bff
1d22
1114
297e
4908
797e
1108
39ff
5514
1122
1141
0000
0000
ENDCHAR
STARTCHAR ch-129
ENCODING 129
SWIDTH 1000 0
DWIDTH 16 0
BBX 16 16 0 -2
BITMAP
1004
1078
2010
45ff
7c10
10fe
20d6
44ba
7cfe
1010
54fe
5410
55ff
1129
0000
0000
ENDCHAR
STARTCHAR ch-130
ENCODING 130
SWIDTH 1000 0
DWIDTH 16 0
BBX 16 16 0 -2
BITMAP
3f3f
4848
0ffc
0808
0ff8
0fe8
0ff8
7fff
0510
0bc8
1114
27f2
42a1
0490
0000
0000
ENDCHAR
STARTCHAR ch-134
ENCODING 134
SWIDTH 1000 0
DWIDTH 16 0
BBX 16 16 0 -2
BITMAP
11fc
11ac
2174
49fc
7820
21fc
4820
7bfe
1154
3820
5420
11fc
1020
13fe
0000
0000
ENDCHAR
STARTCHAR ch-135
ENCODING 135
SWIDTH 1000 0
DWIDTH 16 0
BBX 16 16 0 -2
BITMAP
24bf
1508
7fd0
153f
24a1
083f
1121
3e3f
0421
08bf
3f80
1514
24a2
0441
0000
0000
ENDCHAR
STARTCHAR ch-136
ENCODING 136
SWIDTH 1000 0
DWIDTH 16 0
BBX 16 16 0 -2
BITMAP
211f
2108
4ff0
791f
2111
291f
4fd1
781f
13d1
3a51
565f
1240
13ca
1251
0000
0000
ENDCHAR
STARTCHAR ch-138
ENCODING 138
SWIDTH 1000 0
DWIDTH 16 0
BBX 16 16 0 -2
BITMAP
1010
11ff
2124
45ff
7d24
113c
21ff
4500
7d7e
114a
557e
564a
547e
1081
0000
0000
ENDCHAR
STARTCHAR ch-139
ENCODING 139
SWIDTH 1000 0
DWIDTH 16 0
BBX 16 16 0 -2
BITMAP
13ff
1020
20fc
44f4
7cbc
13ff
2353
4544
7c7c
1020
547c
54a8
5410
10ee
0000
0000
ENDCHAR
STARTCHAR ch-140
ENCODING 140
SWIDTH 1000 0
DWIDTH 16 0
BBX 16 16 0 -2
BITMAP
1010
10fe
2010
44fe
7dff
1129
21ff
44fe
7c82
10fe
54fe
5482
54fe
1101
0000
0000
ENDCHAR
STARTCHAR ch-141
ENCODING 141
SWIDTH 1000 0
DWIDTH 16 0
BBX 16 16 0 -2
BITMAP
0ff8
0888
0ff8
0ff8
7f7f
4949
7f7f
7f7f
0220
0fc0
0088
1ffc
0490
0888
0000
0000
ENDCHAR
STARTCHAR ch-143
ENCODING 143
SWIDTH 1000 0
DWIDTH 16 0
BBX 16 16 0 -2
BITMAP
1010
21ff
45fe
7dd6
09ba
11fe
2110
457c
7d10
11ff
5592
567d
5410
11ff
0000
0000
ENDCHAR
STARTCHAR ch-145
ENCODING 145
SWIDTH 1000 0
DWIDTH 16 0
BBX 16 16 0 -2
BITMAP
1020
1038
21ff
4521
7dfc
113c
217c
4554
7d7c
1154
557c
56fe
54aa
11ff
0000
0000
ENDCHAR
STARTCHAR ch-147
ENCODING 147
SWIDTH 1000 0
DWIDTH 16 0
BBX 16 16 0 -2
BITMAP
13de
1252
23de
4652
7fde
0a52
13de
24a1
7c88
17ff
5450
5420
5450
138e
0000
0000
ENDCHAR
STARTCHAR ch-148
ENCODING 148
SWIDTH 1000 0
DWIDTH 16 0
BBX 16 16 0 -2
BITMAP
10fc
1108
21ff
4501
7dff
0884
10f7
24ff
7d08
11ff
5511
55ff
544a
118f
0000
0000
ENDCHAR
STARTCHAR ch-149
ENCODING 149
SWIDTH 1000 0
DWIDTH 16 0
BBX 16 16 0 -2
BITMAP
1010
11ff
21ef
4529
7def
1044
21ff
4444
7dff
1044
55ff
558a
5484
10cb
0000
0000
ENDCHAR
STARTCHAR ch-150
ENCODING 150
SWIDTH 1000 0
DWIDTH 16 0
BBX 16 16 0 -2
BITMAP
0000
124a
2249
4db8
77ff
1148
2f78
4948
7f78
1148
3779
594a
17f5
100b
0000
0000
ENDCHAR
STARTCHAR ch-151
ENCODING 151
SWIDTH 1000 0
DWIDTH 16 0
BBX 16 16 0 -2
BITMAP
1110
21fe
4448
7cfe
0988
10fe
20fe
4488
7cfe
11ff
5529
55ff
5529
1139
0000
0000
ENDCHAR
STARTCHAR ch-152
ENCODING 152
SWIDTH 1000 0
DWIDTH 16 0
BBX 16 16 0 -2
BITMAP
114a
11ef
2042
45ef
7cc6
116b
20fe
4482
7cfe
1082
54fe
5482
54fe
1101
0000
0000
ENDCHAR
STARTCHAR ch-153
ENCODING 153
SWIDTH 1000 0
DWIDTH 16 0
BBX 16 16 0 -2
BITMAP
11ff
1129
21ff
444a
7c9f
1132
21d2
445f
7cb2
11f2
541f
5572
5572
101f
0000
0000
ENDCHAR
STARTCHAR ch-154
ENCODING 154
SWIDTH 1000 0
DWIDTH 16 0
BBX 16 16 0 -2
BITMAP
17ff
179e
2696
4e96
7820
17ff
2448
47ff
7c49
17ff
5508
55ce
5529
11ef
0000
0000
ENDCHAR
STARTCHAR ch-155
ENCODING 155
SWIDTH 1000 0
DWIDTH 16 0
BBX 16 16 0 -2
BITMAP
0080
0ff8
0ff8
3ffe
07f0
0490
1ffc
07f0
3e7c
3e24
3e78
2212
7f7e
4949
0000
0000
ENDCHAR
STARTCHAR ch-156
ENCODING 156
SWIDTH 1000 0
DWIDTH 16 0
BBX 16 16 0 -2
BITMAP
17c8
150f
27d2
445f
7fd3
0d15
17df
25fc
7dfc
1104
55fc
5504
55fd
130f
0000
0000
ENDCHAR
STARTCHAR ch-310
ENCODING 310
SWIDTH 1000 0
DWIDTH 16 0
BBX 16 16 0 -2
BITMAP
0400
0408
0ffc
0880
1080
2080
0082
7fff
0080
1084
1084
1084
1ffc
1004
0000
0000
ENDCHAR
STARTCHAR ch-312
ENCODING 312
SWIDTH 1000 0
DWIDTH 16 0
BBX 16 16 0 -2
BITMAP
1000
1100
1f84
247e
4410
0490
7fd0
0410
2490
2490
2490
3f92
20ff
0080
0000
0000
ENDCHAR
STARTCHAR ch-313
ENCODING 313
SWIDTH 1000 0
DWIDTH 16 0
BBX 16 16 0 -2
BITMAP
0400
0804
1ffe
2080
0082
7fff
0080
1084
1084
1ffc
0000
1222
2111
4111
0000
0000
ENDCHAR
STARTCHAR ch-314
ENCODING 314
SWIDTH 1000 0
DWIDTH 16 0
BBX 16 16 0 -2
BITMAP
1020
1220
1f24
28fe
4824
0824
7f24
0824
2aff
2a20
2a50
3e88
2307
0202
0000
0000
ENDCHAR
STARTCHAR ch-317
ENCODING 317
SWIDTH 1000 0
DWIDTH 16 0
BBX 16 16 0 -2
BITMAP
2010
2012
3dff
5010
1038
7c54
1092
1111
5410
5410
54fe
7c10
4410
0010
0000
0000
ENDCHAR
STARTCHAR ch-318
ENCODING 318
SWIDTH 1000 0
DWIDTH 16 0
BBX 16 16 0 -2
BITMAP
2044
2044
3c28
50fe
1044
1044
7c44
11ff
1044
5444
5444
5444
7c84
4504
0000
0000
ENDCHAR
STARTCHAR ch-319
ENCODING 319
SWIDTH 1000 0
DWIDTH 16 0
BBX 16 16 0 -2
BITMAP
2001
21fe
3c80
5080
10ff
1080
7c80
10bf
10a1
54a1
54a1
5521
7c3f
4421
0000
0000
ENDCHAR
STARTCHAR ch-323
ENCODING 323
SWIDTH 1000 0
DWIDTH 16 0
BBX 16 16 0 -2
BITMAP
2a2a
2a2a
1c1c
1414
2222
0000
7fff
4801
1ffc
0080
3ffe
1084
1084
1ffc
0000
0000
ENDCHAR
STARTCHAR ch-324
ENCODING 324
SWIDTH 1000 0
DWIDTH 16 0
BBX 16 16 0 -2
BITMAP
043c
3fa4
0427
1f40
003c
3fa4
2498
3fa4
2243
27f8
0880
7fff
1084
1ffc
0000
0000
ENDCHAR
STARTCHAR ch-325
ENCODING 325
SWIDTH 1000 0
DWIDTH 16 0
BBX 16 16 0 -2
BITMAP
2010
201e
3f10
28ff
4892
08fc
7f92
088e
2aff
2aaa
2a9c
2aff
3e88
0010
0000
0000
ENDCHAR
STARTCHAR ch-328
ENCODING 328
SWIDTH 1000 0
DWIDTH 16 0
BBX 16 16 0 -2
BITMAP
21ff
2028
3dff
5129
11ff
10fe
7c82
10fe
5482
54fe
5410
7dff
4410
0010
0000
0000
ENDCHAR
STARTCHAR ch-330
ENCODING 330
SWIDTH 1000 0
DWIDTH 16 0
BBX 16 16 0 -2
BITMAP
083c
7f25
3e47
3e00
2a7c
3e28
7f10
496f
7f00
07fc
0880
7fff
1084
1ffc
0000
0000
ENDCHAR
STARTCHAR ch-331
ENCODING 331
SWIDTH 1000 0
DWIDTH 16 0
BBX 16 16 0 -2
BITMAP
0080
7fff
1148
3efe
097e
3f48
047e
0848
187e
0ffc
0840
17fc
2844
0ffc
0000
0000
ENDCHAR
STARTCHAR ch-332
ENCODING 332
SWIDTH 1000 0
DWIDTH 16 0
BBX 16 16 0 -2
BITMAP
3f7e
2142
3f7e
3f7e
2142
3f7e
1224
1ffe
2080
7fff
0080
1084
1084
1ffc
0000
0000
ENDCHAR
STARTCHAR ch-333
ENCODING 333
SWIDTH 1000 0
DWIDTH 16 0
BBX 16 16 0 -2
BITMAP
0ff8
0888
0ff8
0ff8
7f7f
4949
7f7f
7f7f
0400
07f8
0880
3ffe
1084
1ffc
0000
0000
ENDCHAR
STARTCHAR ch-335
ENCODING 335
SWIDTH 1000 0
DWIDTH 16 0
BBX 16 16 0 -2
BITMAP
0020
0038
21ff
3d21
51fc
113c
117c
7d54
117c
5554
567c
7cfe
00aa
01ff
0000
0000
ENDCHAR
STARTCHAR ch-336
ENCODING 336
SWIDTH 1000 0
DWIDTH 16 0
BBX 16 16 0 -2
BITMAP
1044
11ff
1e44
28ee
48aa
08ee
7f48
087e
2ac8
2b7e
2a7e
3e48
227f
0040
0000
0000
ENDCHAR
STARTCHAR ch-337
ENCODING 337
SWIDTH 1000 0
DWIDTH 16 0
BBX 16 16 0 -2
BITMAP
0000
7fff
4001
4001
4105
5145
4a29
4411
4a29
5145
4001
4001
4005
4002
0000
0000
ENDCHAR
STARTCHAR ch-340
ENCODING 340
SWIDTH 1000 0
DWIDTH 16 0
BBX 16 16 0 -2
BITMAP
2002
7fff
2222
2142
2ffa
2102
2082
2ffa
2402
2422
27f2
2002
200a
2004
0000
0000
ENDCHAR
STARTCHAR ch-341
ENCODING 341
SWIDTH 1000 0
DWIDTH 16 0
BBX 16 16 0 -2
BITMAP
3fff
2221
4412
0808
0000
1ffc
0080
0080
0082
7fff
0080
0080
0080
0080
0000
0000
ENDCHAR
STARTCHAR ch-344
ENCODING 344
SWIDTH 1000 0
DWIDTH 16 0
BBX 16 16 0 -2
BITMAP
0004
1ffe
1224
1224
1ffc
0000
7fff
0040
0080
0180
02b0
0c8c
3082
0080
0000
0000
ENDCHAR
STARTCHAR ch-347
ENCODING 347
SWIDTH 1000 0
DWIDTH 16 0
BBX 16 16 0 -2
BITMAP
3ffe
2222
2222
3ffe
0008
1ff0
1000
1110
1110
1110
1108
2224
47f3
0010
0000
0000
ENDCHAR
STARTCHAR ch-348
ENCODING 348
SWIDTH 1000 0
DWIDTH 16 0
BBX 16 16 0 -2
BITMAP
0002
3fff
2222
2222
3ffe
0100
0084
3ffe
0080
0084
3ffe
0080
0082
7fff
0000
0000
ENDCHAR
STARTCHAR ch-349
ENCODING 349
SWIDTH 1000 0
DWIDTH 16 0
BBX 16 16 0 -2
BITMAP
3ffe
2222
2222
3ffe
0000
0ff8
0808
0808
0ff8
0808
0ff8
0808
0808
7fff
0000
0000
ENDCHAR
STARTCHAR ch-350
ENCODING 350
SWIDTH 1000 0
DWIDTH 16 0
BBX 16 16 0 -2
BITMAP
3ffe
2222
3ffe
0000
0ff8
0010
00a0
0040
7fff
0242
0444
0840
3140
0080
0000
0000
ENDCHAR
STARTCHAR ch-351
ENCODING 351
SWIDTH 1000 0
DWIDTH 16 0
BBX 16 16 0 -2
BITMAP
0002
3fff
2222
3ffe
0080
0082
7fff
0080
0088
0ffc
0808
0808
0ff8
0808
0000
0000
ENDCHAR
STARTCHAR ch-352
ENCODING 352
SWIDTH 1000 0
DWIDTH 16 0
BBX 16 16 0 -2
BITMAP
3ffe
2222
3ffe
0000
3ffe
2002
3ffe
2040
2040
3ffe
2020
2211
2409
7807
0000
0000
ENDCHAR
STARTCHAR ch-353
ENCODING 353
SWIDTH 1000 0
DWIDTH 16 0
BBX 16 16 0 -2
BITMAP
0004
1ffe
1224
1224
1ffc
0000
0004
1ffe
0080
0888
08fc
0880
0882
7fff
0000
0000
ENDCHAR
STARTCHAR ch-355
ENCODING 355
SWIDTH 1000 0
DWIDTH 16 0
BBX 16 16 0 -2
BITMAP
3ffe
2222
2222
3ffe
2082
0080
1ffc
0080
7fff
0080
1ffc
0080
0080
7fff
0000
0000
ENDCHAR
STARTCHAR ch-357
ENCODING 357
SWIDTH 1000 0
DWIDTH 16 0
BBX 16 16 0 -2
BITMAP
3ffe
2222
3ffe
0000
1ffc
1004
1ffc
0000
1ffc
1004
1ffc
1ffc
1004
2008
0000
0000
ENDCHAR
STARTCHAR ch-358
ENCODING 358
SWIDTH 1000 0
DWIDTH 16 0
BBX 16 16 0 -2
BITMAP
3ffe
2222
2222
3ffe
0000
3ffc
0888
1084
27fa
0020
7fff
0040
0040
01c0
0000
0000
ENDCHAR
STARTCHAR ch-359
ENCODING 359
SWIDTH 1000 0
DWIDTH 16 0
BBX 16 16 0 -2
BITMAP
3ffe
2222
2222
3ffe
2002
0808
0808
7f7f
0808
1c1c
2a2a
4949
0808
0808
0000
0000
ENDCHAR
STARTCHAR ch-360
ENCODING 360
SWIDTH 1000 0
DWIDTH 16 0
BBX 16 16 0 -2
BITMAP
3ffe
2222
3ffe
0100
7fff
0490
1ffc
688b
0ff8
0888
0ff8
0082
0082
007e
0000
0000
ENDCHAR
STARTCHAR ch-361
ENCODING 361
SWIDTH 1000 0
DWIDTH 16 0
BBX 16 16 0 -2
BITMAP
3ffe
2222
3ffe
0080
00fc
0080
1ffc
1004
1ffc
1004
1ffc
0080
7fff
0080
0000
0000
ENDCHAR
STARTCHAR ch-362
ENCODING 362
SWIDTH 1000 0
DWIDTH 16 0
BBX 16 16 0 -2
BITMAP
3ffe
2222
2222
3ffe
0220
7e3f
0220
0220
3e3e
0220
0220
7e3f
0420
0820
0000
0000
ENDCHAR
STARTCHAR ch-363
ENCODING 363
SWIDTH 1000 0
DWIDTH 16 0
BBX 16 16 0 -2
BITMAP
7fff
4221
4221
7fff
0208
0208
3fc8
020c
7fea
0209
3fc8
0208
0208
7fe8
0000
0000
ENDCHAR
STARTCHAR ch-364
ENCODING 364
SWIDTH 1000 0
DWIDTH 16 0
BBX 16 16 0 -2
BITMAP
3ffe
2222
2222
3ffe
0000
3e3e
1414
0808
3636
0000
3e3e
1414
0808
3636
0000
0000
ENDCHAR
STARTCHAR ch-365
ENCODING 365
SWIDTH 1000 0
DWIDTH 16 0
BBX 16 16 0 -2
BITMAP
3ffe
2222
2222
3ffe
0014
0012
7fff
0010
3f90
2092
3f8c
000d
7fb3
0001
0000
0000
ENDCHAR
STARTCHAR ch-366
ENCODING 366
SWIDTH 1000 0
DWIDTH 16 0
BBX 16 16 0 -2
BITMAP
1ffc
1224
1ffc
0080
3ffe
0080
0ff8
0be8
0808
0be8
0808
0be8
080a
7fff
0000
0000
ENDCHAR
STARTCHAR ch-368
ENCODING 368
SWIDTH 1000 0
DWIDTH 16 0
BBX 16 16 0 -2
BITMAP
3ffe
2222
3ffe
0800
7f02
0022
3e22
0022
3e22
0022
3e22
2202
3e0a
2204
0000
0000
ENDCHAR
STARTCHAR ch-370
ENCODING 370
SWIDTH 1000 0
DWIDTH 16 0
BBX 16 16 0 -2
BITMAP
3ffe
2222
3ffe
0108
1ff0
0120
7fff
0600
1ffc
6404
07fc
0404
07fc
0404
0000
0000
ENDCHAR
STARTCHAR ch-371
ENCODING 371
SWIDTH 1000 0
DWIDTH 16 0
BBX 16 16 0 -2
BITMAP
3ffe
2222
3ffe
0000
1ffc
1084
1ffc
1084
1ffc
0000
0104
2882
2809
4ff8
0000
0000
ENDCHAR
STARTCHAR ch-373
ENCODING 373
SWIDTH 1000 0
DWIDTH 16 0
BBX 16 16 0 -2
BITMAP
3ffe
2222
3ffe
1ffe
1080
1ffc
1080
1ffc
1080
1fff
2491
2449
4449
0006
0000
0000
ENDCHAR
STARTCHAR ch-374
ENCODING 374
SWIDTH 1000 0
DWIDTH 16 0
BBX 16 16 0 -2
BITMAP
3ffe
2222
3ffe
0000
0100
7e7e
2022
2242
7d9c
1ffc
1084
1ffc
1084
1ffc
0000
0000
ENDCHAR
STARTCHAR ch-375
ENCODING 375
SWIDTH 1000 0
DWIDTH 16 0
BBX 16 16 0 -2
BITMAP
3ffe
2222
2222
3ffe
0820
1124
7fb8
3f22
213e
3f20
2124
3f38
2121
433f
0000
0000
ENDCHAR
STARTCHAR ch-377
ENCODING 377
SWIDTH 1000 0
DWIDTH 16 0
BBX 16 16 0 -2
BITMAP
3fff
2222
3ffe
08a0
0890
2dff
2910
4bfe
0d10
09fe
0910
0910
09ff
0900
0000
0000
ENDCHAR
STARTCHAR ch-378
ENCODING 378
SWIDTH 1000 0
DWIDTH 16 0
BBX 16 16 0 -2
BITMAP
3ffe
2222
3ffe
0888
1110
0888
1ffc
1084
1ffc
1084
1ffc
7fff
0490
0888
0000
0000
ENDCHAR
STARTCHAR ch-379
ENCODING 379
SWIDTH 1000 0
DWIDTH 16 0
BBX 16 16 0 -2
BITMAP
3ffe
2222
3ffe
0000
3fc2
205f
3fc2
2002
2f92
200a
5fc2
0a82
1242
020c
0000
0000
ENDCHAR
STARTCHAR ch-380
ENCODING 380
SWIDTH 1000 0
DWIDTH 16 0
BBX 16 16 0 -2
BITMAP
3ffe
2222
3ffe
1ffc
1084
1ffc
1084
1ffc
0888
3ffe
0888
7fff
3ffe
0080
0000
0000
ENDCHAR
STARTCHAR ch-381
ENCODING 381
SWIDTH 1000 0
DWIDTH 16 0
BBX 16 16 0 -2
BITMAP
3ffe
2222
3ffe
0000
3ffe
2a80
2702
2212
2512
2892
2a92
4712
0502
18c6
0000
0000
ENDCHAR
STARTCHAR ch-382
ENCODING 382
SWIDTH 1000 0
DWIDTH 16 0
BBX 16 16 0 -2
BITMAP
7fff
4221
7fff
0410
3ffe
288a
2492
3ffe
0ff8
0808
0ff8
0808
0ff8
0808
0000
0000
ENDCHAR
STARTCHAR ch-383
ENCODING 383
SWIDTH 1000 0
DWIDTH 16 0
BBX 16 16 0 -2
BITMAP
3ffe
2222
3ffe
3ffe
0410
7fff
1ffc
1084
1ffc
1084
1ffc
0080
1ffc
7fff
0000
0000
ENDCHAR
STARTCHAR ch-387
ENCODING 387
SWIDTH 1000 0
DWIDTH 16 0
BBX 16 16 0 -2
BITMAP
3ffe
2222
3ffe
0410
3ffe
0ff8
0ff8
0ff8
7fff
0888
17f4
2492
0490
0080
0000
0000
ENDCHAR
STARTCHAR ch-389
ENCODING 389
SWIDTH 1000 0
DWIDTH 16 0
BBX 16 16 0 -2
BITMAP
3ffe
2222
3ffe
0420
0848
12fe
3d48
087e
1248
7f7e
0848
2a48
2a7f
0840
0000
0000
ENDCHAR
STARTCHAR ch-390
ENCODING 390
SWIDTH 1000 0
DWIDTH 16 0
BBX 16 16 0 -2
BITMAP
3ffe
2222
3ffe
0820
113c
7f21
003f
3f00
2120
3d3c
3d21
213f
4222
4221
0000
0000
ENDCHAR
STARTCHAR ch-391
ENCODING 391
SWIDTH 1000 0
DWIDTH 16 0
BBX 16 16 0 -2
BITMAP
1ffc
1224
1ffc
2208
7f7f
2214
3e22
7f41
497f
7f02
087a
7f4a
087a
080e
0000
0000
ENDCHAR
STARTCHAR ch-392
ENCODING 392
SWIDTH 1000 0
DWIDTH 16 0
BBX 16 16 0 -2
BITMAP
3ffe
2222
3ffe
28fe
7c88
28fe
3888
10fe
7c88
54ff
7c01
1155
7d55
1003
0000
0000
ENDCHAR
STARTCHAR ch-393
ENCODING 393
SWIDTH 1000 0
DWIDTH 16 0
BBX 16 16 0 -2
BITMAP
3ffe
2222
3ffe
0000
0882
13e4
2409
79de
1004
25c9
7c1f
01c0
5555
55d5
0000
0000
ENDCHAR
STARTCHAR ch-394
ENCODING 394
SWIDTH 1000 0
DWIDTH 16 0
BBX 16 16 0 -2
BITMAP
0410
0220
0144
3ffe
0080
0088
1ffc
0080
0080
0082
7fff
0080
0080
0080
0000
0000
ENDCHAR
STARTCHAR ch-395
ENCODING 395
SWIDTH 1000 0
DWIDTH 16 0
BBX 16 16 0 -2
BITMAP
0080
0490
0490
3c9e
0490
0490
3ffe
0080
0080
0082
7fff
0080
0080
0080
0000
0000
ENDCHAR
STARTCHAR ch-396
ENCODING 396
SWIDTH 1000 0
DWIDTH 16 0
BBX 16 16 0 -2
BITMAP
0410
0224
3ffe
0080
0088
1ffc
0080
0082
7fff
0140
0240
0441
0841
303f
0000
0000
ENDCHAR
STARTCHAR ch-397
ENCODING 397
SWIDTH 1000 0
DWIDTH 16 0
BBX 16 16 0 -2
BITMAP
0100
7fff
0220
0410
0808
7417
0220
1ffc
0080
1ffc
0080
7fff
0080
0080
0000
0000
ENDCHAR
STARTCHAR ch-398
ENCODING 398
SWIDTH 1000 0
DWIDTH 16 0
BBX 16 16 0 -2
BITMAP
0410
0330
3ffe
0080
1ffc
0080
7fff
0080
0084
3ffe
0140
0230
0c0f
7002
0000
0000
ENDCHAR
STARTCHAR ch-401
ENCODING 401
SWIDTH 1000 0
DWIDTH 16 0
BBX 16 16 0 -2
BITMAP
0410
0220
3ffe
0080
3ffe
0080
7fff
0400
0ff0
3020
0040
00c0
0120
7e1f
0000
0000
ENDCHAR
STARTCHAR ch-402
ENCODING 402
SWIDTH 1000 0
DWIDTH 16 0
BBX 16 16 0 -2
BITMAP
4410
2828
7c44
1082
1101
7c00
11fe
1022
7c22
1022
1042
2082
4114
0208
0000
0000
ENDCHAR
STARTCHAR ch-404
ENCODING 404
SWIDTH 1000 0
DWIDTH 16 0
BBX 16 16 0 -2
BITMAP
0808
0618
0220
3ffe
0080
0088
3ffc
0080
0082
7fff
1248
1124
3126
2002
0000
0000
ENDCHAR
STARTCHAR ch-405
ENCODING 405
SWIDTH 1000 0
DWIDTH 16 0
BBX 16 16 0 -2
BITMAP
0808
0410
3ffe
0080
3ffe
0080
7fff
0384
00b8
3ec0
04a0
0890
728f
0104
0000
0000
ENDCHAR
STARTCHAR ch-406
ENCODING 406
SWIDTH 1000 0
DWIDTH 16 0
BBX 16 16 0 -2
BITMAP
4100
223c
1424
7f24
0825
0847
7f00
083e
0822
7f14
0808
0814
1022
2041
0000
0000
ENDCHAR
STARTCHAR ch-410
ENCODING 410
SWIDTH 1000 0
DWIDTH 16 0
BBX 16 16 0 -2
BITMAP
2220
1450
0050
7e88
0907
0a7a
3e00
0800
09fc
7e04
0808
0850
1020
1010
0000
0000
ENDCHAR
STARTCHAR ch-411
ENCODING 411
SWIDTH 1000 0
DWIDTH 16 0
BBX 16 16 0 -2
BITMAP
0410
3ffe
0080
1ffc
0080
7fff
0220
3ffe
0222
3ffe
2220
3fff
0421
1822
0000
0000
ENDCHAR
STARTCHAR ch-412
ENCODING 412
SWIDTH 1000 0
DWIDTH 16 0
BBX 16 16 0 -2
BITMAP
4420
2810
11ff
7d01
1101
1000
7dff
1010
1010
7c10
1010
2010
4050
0020
0000
0000
ENDCHAR
STARTCHAR ch-413
ENCODING 413
SWIDTH 1000 0
DWIDTH 16 0
BBX 16 16 0 -2
BITMAP
120e
14f0
7f90
0890
0890
3e92
08ff
0890
7f88
0888
1095
10a5
20c3
4079
0000
0000
ENDCHAR
STARTCHAR ch-414
ENCODING 414
SWIDTH 1000 0
DWIDTH 16 0
BBX 16 16 0 -2
BITMAP
0808
0410
3ffe
0080
1ffc
0080
7fff
0400
0ff8
1088
6ffe
0108
0208
3fff
0000
0000
ENDCHAR
STARTCHAR ch-416
ENCODING 416
SWIDTH 1000 0
DWIDTH 16 0
BBX 16 16 0 -2
BITMAP
4410
29ff
1010
7cfe
1012
7dfe
1110
7dff
1011
1011
102b
1044
2082
4101
0000
0000
ENDCHAR
STARTCHAR ch-417
ENCODING 417
SWIDTH 1000 0
DWIDTH 16 0
BBX 16 16 0 -2
BITMAP
0808
0410
1ffc
0080
1ffc
0080
3ffe
0080
01ff
3a21
0422
0050
7888
0306
0000
0000
ENDCHAR
STARTCHAR ch-418
ENCODING 418
SWIDTH 1000 0
DWIDTH 16 0
BBX 16 16 0 -2
BITMAP
4406
2805
11ff
7c04
1004
7c44
1044
11f4
7c45
1046
1044
108d
2103
4001
0000
0000
ENDCHAR
STARTCHAR ch-420
ENCODING 420
SWIDTH 1000 0
DWIDTH 16 0
BBX 16 16 0 -2
BITMAP
0041
3f22
1114
117f
7f88
1108
3f7f
1008
2108
5f88
117f
1108
1f08
1108
0000
0000
ENDCHAR
STARTCHAR ch-421
ENCODING 421
SWIDTH 1000 0
DWIDTH 16 0
BBX 16 16 0 -2
BITMAP
4402
29ff
1049
7c92
1124
7c92
1049
1000
7dff
1010
1010
1010
2012
41ff
0000
0000
ENDCHAR
STARTCHAR ch-422
ENCODING 422
SWIDTH 1000 0
DWIDTH 16 0
BBX 16 16 0 -2
BITMAP
4420
2810
11ff
7d01
1101
7cfe
1000
1000
7dff
1048
1048
1048
2089
410f
0000
0000
ENDCHAR
STARTCHAR ch-423
ENCODING 423
SWIDTH 1000 0
DWIDTH 16 0
BBX 16 16 0 -2
BITMAP
4420
2824
1042
7dff
1044
7c82
1141
107e
7c42
10a4
1118
1018
2024
40c3
0000
0000
ENDCHAR
STARTCHAR ch-424
ENCODING 424
SWIDTH 1000 0
DWIDTH 16 0
BBX 16 16 0 -2
BITMAP
0220
3ffe
0080
1ffc
0080
7fff
1040
087e
2082
1124
0420
0850
318f
1602
0000
0000
ENDCHAR
STARTCHAR ch-425
ENCODING 425
SWIDTH 1000 0
DWIDTH 16 0
BBX 16 16 0 -2
BITMAP
0410
3ffe
0080
3ffe
0080
7fff
0128
1e24
0422
7fff
0522
7e14
0409
1c37
0000
0000
ENDCHAR
STARTCHAR ch-428
ENCODING 428
SWIDTH 1000 0
DWIDTH 16 0
BBX 16 16 0 -2
BITMAP
4406
2805
11ff
7d04
11fc
7d04
1174
7d54
1154
1155
1176
1104
210b
4201
0000
0000
ENDCHAR
STARTCHAR ch-429
ENCODING 429
SWIDTH 1000 0
DWIDTH 16 0
BBX 16 16 0 -2
BITMAP
4438
2844
1082
7d01
107c
7c01
11e1
7d29
1129
11e9
1129
11e9
2121
4223
0000
0000
ENDCHAR
STARTCHAR ch-431
ENCODING 431
SWIDTH 1000 0
DWIDTH 16 0
BBX 16 16 0 -2
BITMAP
12fe
1484
7efc
0884
08fc
3e40
0842
08ff
7f12
0a92
08aa
10f2
200a
4004
0000
0000
ENDCHAR
STARTCHAR ch-432
ENCODING 432
SWIDTH 1000 0
DWIDTH 16 0
BBX 16 16 0 -2
BITMAP
2210
1492
7e92
08fe
0842
3e40
09ff
7f48
08aa
08ac
1154
1114
2222
4441
0000
0000
ENDCHAR
STARTCHAR ch-433
ENCODING 433
SWIDTH 1000 0
DWIDTH 16 0
BBX 16 16 0 -2
BITMAP
45ff
2908
7d10
117e
1142
7d7e
1142
117e
7d08
112a
112a
1249
2408
4018
0000
0000
ENDCHAR
STARTCHAR ch-434
ENCODING 434
SWIDTH 1000 0
DWIDTH 16 0
BBX 16 16 0 -2
BITMAP
0220
3ffe
0080
1ffc
0080
7fff
1f48
7fff
1540
1ea4
2828
4f11
0129
0e47
0000
0000
ENDCHAR
STARTCHAR ch-435
ENCODING 435
SWIDTH 1000 0
DWIDTH 16 0
BBX 16 16 0 -2
BITMAP
4402
29fc
0092
7c54
11ff
1038
7c54
1092
1111
7dff
1111
11ff
2111
41ff
0000
0000
ENDCHAR
STARTCHAR ch-437
ENCODING 437
SWIDTH 1000 0
DWIDTH 16 0
BBX 16 16 0 -2
BITMAP
4410
29ff
0054
7dff
1044
10fe
7c82
10fe
1082
7cfe
1082
10fe
2082
4101
0000
0000
ENDCHAR
STARTCHAR ch-438
ENCODING 438
SWIDTH 1000 0
DWIDTH 16 0
BBX 16 16 0 -2
BITMAP
4410
29ff
7cfe
10ba
10aa
7cba
10fe
107c
7c44
107c
1044
107c
2000
41ff
0000
0000
ENDCHAR
STARTCHAR ch-439
ENCODING 439
SWIDTH 1000 0
DWIDTH 16 0
BBX 16 16 0 -2
BITMAP
4210
2428
0044
7e82
0901
7efe
0800
7eee
08aa
08ee
0800
0844
10aa
6111
0000
0000
ENDCHAR
STARTCHAR ch-440
ENCODING 440
SWIDTH 1000 0
DWIDTH 16 0
BBX 16 16 0 -2
BITMAP
0080
7fff
1000
1ffc
0ff8
0ff8
3d5c
27f4
3c94
25d4
3c9c
27f5
2495
4ca3
0000
0000
ENDCHAR
STARTCHAR ch-441
ENCODING 441
SWIDTH 1000 0
DWIDTH 16 0
BBX 16 16 0 -2
BITMAP
0220
3ffe
1ffc
7fff
1414
0140
1ffc
0080
0ff8
0080
7fff
0140
0630
380e
0000
0000
ENDCHAR
STARTCHAR ch-442
ENCODING 442
SWIDTH 1000 0
DWIDTH 16 0
BBX 16 16 0 -2
BITMAP
42fe
2410
19ff
7f55
0939
0955
7e00
08fe
0820
7fff
0929
0929
1129
6103
0000
0000
ENDCHAR
STARTCHAR ch-443
ENCODING 443
SWIDTH 1000 0
DWIDTH 16 0
BBX 16 16 0 -2
BITMAP
4410
2bff
7e44
13fe
1246
7ffe
13ff
1351
134b
7e7c
127c
14a8
2010
41ee
0000
0000
ENDCHAR
STARTCHAR ch-444
ENCODING 444
SWIDTH 1000 0
DWIDTH 16 0
BBX 16 16 0 -2
BITMAP
1ffe
1002
1ffe
1110
17fc
13f8
1ffe
1554
1fbe
1208
2fbe
2208
5fff
0208
0000
0000
ENDCHAR
STARTCHAR ch-445
ENCODING 445
SWIDTH 1000 0
DWIDTH 16 0
BBX 16 16 0 -2
BITMAP
0002
3f7f
0102
1122
0912
0912
0102
050a
0912
3162
1122
0102
0a14
0408
0000
0000
ENDCHAR
STARTCHAR ch-446
ENCODING 446
SWIDTH 1000 0
DWIDTH 16 0
BBX 16 16 0 -2
BITMAP
7700
117f
1108
5508
5508
3308
1108
3308
5508
1108
1108
110a
557f
2200
0000
0000
ENDCHAR
STARTCHAR ch-447
ENCODING 447
SWIDTH 1000 0
DWIDTH 16 0
BBX 16 16 0 -2
BITMAP
3ffe
1144
0924
0104
0d34
31c4
0514
0208
0410
7fff
0410
0410
0810
1010
0000
0000
ENDCHAR
STARTCHAR ch-448
ENCODING 448
SWIDTH 1000 0
DWIDTH 16 0
BBX 16 16 0 -2
BITMAP
7708
1108
1108
557f
5549
3349
1149
337f
5549
1108
1108
1108
5508
2208
0000
0000
ENDCHAR
STARTCHAR ch-449
ENCODING 449
SWIDTH 1000 0
DWIDTH 16 0
BBX 16 16 0 -2
BITMAP
0220
0490
190c
6223
07f0
0008
3f7e
1122
0912
0306
0d1a
3162
050a
0204
0000
0000
ENDCHAR
STARTCHAR ch-450
ENCODING 450
SWIDTH 1000 0
DWIDTH 16 0
BBX 16 16 0 -2
BITMAP
7314
1122
1141
5500
337f
1111
1111
3311
5511
1111
1111
1121
554a
2204
0000
0000
ENDCHAR
STARTCHAR ch-451
ENCODING 451
SWIDTH 1000 0
DWIDTH 16 0
BBX 16 16 0 -2
BITMAP
11ef
1021
1021
7d29
10a5
1063
2021
4863
10a5
2129
4821
7c21
054a
0084
0000
0000
ENDCHAR
STARTCHAR ch-453
ENCODING 453
SWIDTH 1000 0
DWIDTH 16 0
BBX 16 16 0 -2
BITMAP
0800
08f7
7f11
0855
0855
7e33
4211
4231
24d7
1811
1811
2466
4300
00ff
0000
0000
ENDCHAR
STARTCHAR ch-455
ENCODING 455
SWIDTH 1000 0
DWIDTH 16 0
BBX 16 16 0 -2
BITMAP
7e7e
0202
3232
0202
7272
0c0c
0402
7fff
1010
2210
4120
00c0
0120
3e1e
0000
0000
ENDCHAR
STARTCHAR ch-457
ENCODING 457
SWIDTH 1000 0
DWIDTH 16 0
BBX 16 16 0 -2
BITMAP
0877
0811
7f11
0855
0833
1c11
2a11
4933
0855
0811
3e11
0811
08a5
0842
0000
0000
ENDCHAR
STARTCHAR ch-458
ENCODING 458
SWIDTH 1000 0
DWIDTH 16 0
BBX 16 16 0 -2
BITMAP
0802
09ff
0022
7f32
00aa
02aa
2222
1266
14aa
1532
0b22
7c22
00aa
0044
0000
0000
ENDCHAR
STARTCHAR ch-459
ENCODING 459
SWIDTH 1000 0
DWIDTH 16 0
BBX 16 16 0 -2
BITMAP
7308
1108
1108
557f
3322
1122
1122
3322
5522
1122
1122
1122
557f
2200
0000
0000
ENDCHAR
STARTCHAR ch-460
ENCODING 460
SWIDTH 1000 0
DWIDTH 16 0
BBX 16 16 0 -2
BITMAP
3f7f
1122
0912
0306
0d1a
3162
0080
0084
3ffe
0010
0410
0410
0222
7fff
0000
0000
ENDCHAR
STARTCHAR ch-461
ENCODING 461
SWIDTH 1000 0
DWIDTH 16 0
BBX 16 16 0 -2
BITMAP
7708
1108
117f
5549
3349
1148
117f
3361
5551
114a
1144
114a
5291
2421
0000
0000
ENDCHAR
STARTCHAR ch-462
ENCODING 462
SWIDTH 1000 0
DWIDTH 16 0
BBX 16 16 0 -2
BITMAP
0822
15ff
1222
2022
5d32
00aa
3eaa
0222
0466
25ba
1822
0822
04aa
0044
0000
0000
ENDCHAR
STARTCHAR ch-463
ENCODING 463
SWIDTH 1000 0
DWIDTH 16 0
BBX 16 16 0 -2
BITMAP
3f7e
1112
090a
1192
276c
0220
0490
790f
0640
0090
0f10
0020
0040
1f80
0000
0000
ENDCHAR
STARTCHAR ch-464
ENCODING 464
SWIDTH 1000 0
DWIDTH 16 0
BBX 16 16 0 -2
BITMAP
7708
1128
113e
5548
3308
1108
117f
3308
5508
1108
1114
1122
5541
2241
0000
0000
ENDCHAR
STARTCHAR ch-465
ENCODING 465
SWIDTH 1000 0
DWIDTH 16 0
BBX 16 16 0 -2
BITMAP
7720
1120
113f
5521
5541
333d
1125
3325
5525
113d
1101
1101
550a
2204
0000
0000
ENDCHAR
STARTCHAR ch-466
ENCODING 466
SWIDTH 1000 0
DWIDTH 16 0
BBX 16 16 0 -2
BITMAP
7f7f
0101
2121
1111
0505
7979
0282
1104
1ffe
1004
1ffc
1004
1ffc
1004
0000
0000
ENDCHAR
STARTCHAR ch-468
ENCODING 468
SWIDTH 1000 0
DWIDTH 16 0
BBX 16 16 0 -2
BITMAP
4100
2202
14ef
7f22
08aa
3e66
0822
0822
7f66
08aa
0932
1022
10aa
2044
0000
0000
ENDCHAR
STARTCHAR ch-469
ENCODING 469
SWIDTH 1000 0
DWIDTH 16 0
BBX 16 16 0 -2
BITMAP
01c0
0220
0410
0be8
1004
2ffa
4809
0ff8
0000
3f7e
1922
0512
0922
364c
0000
0000
ENDCHAR
STARTCHAR ch-471
ENCODING 471
SWIDTH 1000 0
DWIDTH 16 0
BBX 16 16 0 -2
BITMAP
0800
1f77
2211
5411
0811
1055
2433
0f91
1111
2a33
0455
0811
1055
2022
0000
0000
ENDCHAR
STARTCHAR ch-475
ENCODING 475
SWIDTH 1000 0
DWIDTH 16 0
BBX 16 16 0 -2
BITMAP
0840
08ff
1124
6018
1418
1466
1400
15ef
1529
14a5
1063
11ad
1021
10c6
0000
0000
ENDCHAR
STARTCHAR ch-476
ENCODING 476
SWIDTH 1000 0
DWIDTH 16 0
BBX 16 16 0 -2
BITMAP
3f3f
0101
1111
0909
1111
0606
0080
3ffe
0888
1494
2362
0220
0410
780f
0000
0000
ENDCHAR
STARTCHAR ch-478
ENCODING 478
SWIDTH 1000 0
DWIDTH 16 0
BBX 16 16 0 -2
BITMAP
7e20
1210
13ff
1200
5a00
36fe
1282
1282
5afe
3610
1254
1292
1311
6c30
0000
0000
ENDCHAR
STARTCHAR ch-479
ENCODING 479
SWIDTH 1000 0
DWIDTH 16 0
BBX 16 16 0 -2
BITMAP
3f7e
1122
0d1a
0912
31a2
0440
0ffe
1840
2ffc
4840
0ffc
0840
0fff
0800
0000
0000
ENDCHAR
STARTCHAR ch-480
ENCODING 480
SWIDTH 1000 0
DWIDTH 16 0
BBX 16 16 0 -2
BITMAP
3f3e
0102
1932
050a
3932
0080
3ffe
0410
0a28
1144
7fff
0080
0080
0080
0000
0000
ENDCHAR
STARTCHAR ch-481
ENCODING 481
SWIDTH 1000 0
DWIDTH 16 0
BBX 16 16 0 -2
BITMAP
0220
3e3e
0220
3e3e
0220
7e3f
0220
7f7e
2122
1112
191a
6162
050a
0204
0000
0000
ENDCHAR
STARTCHAR ch-482
ENCODING 482
SWIDTH 1000 0
DWIDTH 16 0
BBX 16 16 0 -2
BITMAP
7f77
4911
5d11
4955
4933
5d11
4111
5d33
5555
5511
5d11
4111
4111
4366
0000
0000
ENDCHAR
STARTCHAR ch-483
ENCODING 483
SWIDTH 1000 0
DWIDTH 16 0
BBX 16 16 0 -2
BITMAP
7e7e
3232
0202
7272
1c9c
0080
1ffc
0810
3ffe
0220
7fff
0140
0080
3f7e
0000
0000
ENDCHAR
STARTCHAR ch-485
ENCODING 485
SWIDTH 1000 0
DWIDTH 16 0
BBX 16 16 0 -2
BITMAP
0110
0fe0
0142
7fff
07f8
1c08
67f8
0408
07f8
3f7e
1122
0d1a
3162
0306
0000
0000
ENDCHAR
STARTCHAR ch-486
ENCODING 486
SWIDTH 1000 0
DWIDTH 16 0
BBX 16 16 0 -2
BITMAP
0410
7fff
1f24
1124
1f24
1124
1f24
110c
3f7e
1122
0912
0d1a
3162
0306
0000
0000
ENDCHAR
STARTCHAR ch-488
ENCODING 488
SWIDTH 1000 0
DWIDTH 16 0
BBX 16 16 0 -2
BITMAP
7e7e
0202
3232
7272
1ffc
1004
1ffc
1004
1ffc
0000
3ffe
08fc
1480
63ff
0000
0000
ENDCHAR
STARTCHAR ch-489
ENCODING 489
SWIDTH 1000 0
DWIDTH 16 0
BBX 16 16 0 -2
BITMAP
0800
3f7f
2112
3f5a
2136
2012
3f92
2ab6
2ada
3f92
6a92
2a92
28da
21a4
0000
0000
ENDCHAR
STARTCHAR ch-490
ENCODING 490
SWIDTH 1000 0
DWIDTH 16 0
BBX 16 16 0 -2
BITMAP
7714
1149
1155
1163
5541
337f
1124
3342
5591
113e
1162
1114
1108
6677
0000
0000
ENDCHAR
STARTCHAR ch-491
ENCODING 491
SWIDTH 1000 0
DWIDTH 16 0
BBX 16 16 0 -2
BITMAP
7700
113e
7700
1100
7700
117f
6624
0024
2024
7f24
4124
7f25
4125
7f47
0000
0000
ENDCHAR
STARTCHAR ch-492
ENCODING 492
SWIDTH 1000 0
DWIDTH 16 0
BBX 16 16 0 -2
BITMAP
1f7c
0924
0514
3ffe
2082
2ffa
07f0
0490
07f0
0490
07f0
0080
1ffc
0080
0000
0000
ENDCHAR
STARTCHAR ch-493
ENCODING 493
SWIDTH 1000 0
DWIDTH 16 0
BBX 16 16 0 -2
BITMAP
772e
1142
11c2
557f
3340
1150
115f
3364
5544
117f
1144
1144
114a
6651
0000
0000
ENDCHAR
STARTCHAR ch-494
ENCODING 494
SWIDTH 1000 0
DWIDTH 16 0
BBX 16 16 0 -2
BITMAP
7f00
0077
3e11
2211
22dd
3e33
0011
7f33
5555
5599
7f11
4911
4155
4322
0000
0000
ENDCHAR
STARTCHAR ch-495
ENCODING 495
SWIDTH 1000 0
DWIDTH 16 0
BBX 16 16 0 -2
BITMAP
7e7e
3a3a
7272
0c8c
7fff
0ff8
0808
0ff8
0000
3ffe
27f2
2412
27f2
2006
0000
0000
ENDCHAR
STARTCHAR ch-496
ENCODING 496
SWIDTH 1000 0
DWIDTH 16 0
BBX 16 16 0 -2
BITMAP
0810
0828
7f44
0883
3f00
22ee
3e22
22aa
3e66
0822
7f66
08aa
08aa
0844
0000
0000
ENDCHAR
STARTCHAR ch-497
ENCODING 497
SWIDTH 1000 0
DWIDTH 16 0
BBX 16 16 0 -2
BITMAP
0800
3eef
2222
3e22
22aa
3e66
0822
7f22
1466
2aaa
4922
3e22
08aa
0844
0000
0000
ENDCHAR
STARTCHAR ch-498
ENCODING 498
SWIDTH 1000 0
DWIDTH 16 0
BBX 16 16 0 -2
BITMAP
7f77
1411
7f11
5511
5533
7f55
0011
3e33
0055
7f11
2a11
4911
0811
1866
0000
0000
ENDCHAR
STARTCHAR ch-499
ENCODING 499
SWIDTH 1000 0
DWIDTH 16 0
BBX 16 16 0 -2
BITMAP
3fbc
2824
2f27
3440
3fbe
2414
2a08
3fb7
3f7e
1122
0912
3162
050a
0204
0000
0000
ENDCHAR
STARTCHAR ch-500
ENCODING 500
SWIDTH 1000 0
DWIDTH 16 0
BBX 16 16 0 -2
BITMAP
7e08
123e
1288
123e
37aa
5abe
12aa
373e
5a88
12be
1288
1288
1280
257f
0000
0000
ENDCHAR
STARTCHAR ch-501
ENCODING 501
SWIDTH 1000 0
DWIDTH 16 0
BBX 16 16 0 -2
BITMAP
7710
113e
1162
553e
3322
113e
3320
553f
1120
113f
1155
11ab
1101
660e
0000
0000
ENDCHAR
STARTCHAR ch-503
ENCODING 503
SWIDTH 1000 0
DWIDTH 16 0
BBX 16 16 0 -2
BITMAP
24bf
1509
0e09
7fed
151b
2489
4449
209b
3bed
4a89
2a89
13c9
6089
00b6
0000
0000
ENDCHAR
STARTCHAR ch-504
ENCODING 504
SWIDTH 1000 0
DWIDTH 16 0
BBX 16 16 0 -2
BITMAP
043f
7fc9
1509
7fed
111b
3f89
2089
3f9b
20ad
3f89
2089
3f89
2089
4076
0000
0000
ENDCHAR
STARTCHAR ch-505
ENCODING 505
SWIDTH 1000 0
DWIDTH 16 0
BBX 16 16 0 -2
BITMAP
0400
3f7e
0412
7fda
1136
7b92
1112
7b92
0036
7fda
0a12
1237
2201
43ff
0000
0000
ENDCHAR
STARTCHAR ch-507
ENCODING 507
SWIDTH 1000 0
DWIDTH 16 0
BBX 16 16 0 -2
BITMAP
06ef
7922
2922
1a22
7faa
2a66
4922
3e22
2a66
2aaa
3e22
2a22
3eaa
2244
0000
0000
ENDCHAR
STARTCHAR ch-508
ENCODING 508
SWIDTH 1000 0
DWIDTH 16 0
BBX 16 16 0 -2
BITMAP
3f7c
1144
0d34
1144
0104
0ff8
0be8
0ff8
0220
1ffc
0220
7fff
0410
1808
0000
0000
ENDCHAR
STARTCHAR ch-509
ENCODING 509
SWIDTH 1000 0
DWIDTH 16 0
BBX 16 16 0 -2
BITMAP
0800
2f3f
2809
7fad
015b
7f89
2109
2f1b
252d
2d09
3709
2589
2549
5ad2
0000
0000
ENDCHAR
STARTCHAR ch-510
ENCODING 510
SWIDTH 1000 0
DWIDTH 16 0
BBX 16 16 0 -2
BITMAP
7f77
5511
7f11
0055
7f33
0011
3e33
2255
3e11
1011
2511
6611
2a11
7166
0000
0000
ENDCHAR
STARTCHAR ch-511
ENCODING 511
SWIDTH 1000 0
DWIDTH 16 0
BBX 16 16 0 -2
BITMAP
043f
7fc9
0409
3fad
7fdb
0049
3fc9
042d
7fdb
7fc9
0089
7fc9
4a89
79b6
0000
0000
ENDCHAR
ENDFONT
